<?xml version="1.0" encoding="UTF-8"?>
<svg id="Layer_2" data-name="Layer 2" xmlns="http://www.w3.org/2000/svg" viewBox="0 0 127.77 160.4">
  <defs>
    <style>
      .cls-1 {
        fill: none;
        stroke: #663c23;
        stroke-linejoin: round;
        stroke-width: 3.51px;
      }
    </style>
  </defs>
  <g id="Layer_9_copy" data-name="Layer 9 copy">
    <path class="cls-1" d="M108.03,2.84C39.96.21,18.61,3.14,16.39,3.49,16.39,3.49.15,6.85,1.88,23.73c1.76,17.17,20.26,16.72,20.26,16.72l-.14.02c.11-.02,7.09-.95,25.66-1.22v100.68c0,10.33,8.38,18.71,18.71,18.71s18.71-8.38,18.71-18.71V39.54c6.55.16,13.7.39,21.5.69.25,0,.49.01.74.01,10,0,18.29-7.91,18.68-17.98.4-10.32-7.65-19.02-17.97-19.42Z"/>
  </g>
</svg>