<?xml version="1.0" encoding="UTF-8"?>
<svg id="Layer_2" data-name="Layer 2" xmlns="http://www.w3.org/2000/svg" viewBox="0 0 119.5 153.18">
  <defs>
    <style>
      .cls-1 {
        fill: none;
        stroke: #663c23;
        stroke-linejoin: round;
        stroke-width: 3.51px;
      }
    </style>
  </defs>
  <g id="Layer_9_copy" data-name="Layer 9 copy">
    <path class="cls-1" d="M62.34,151.43c-.5,0-1-.02-1.52-.05-13.88-.93-20.31-13.83-26.72-29.34-4.04-9.77-8.86-23.19-14.33-39.88C10.6,54.15,2.8,26.73,2.47,25.58-.35,15.64,5.42,5.29,15.35,2.47c9.94-2.82,20.28,2.94,23.11,12.88,6.93,24.39,15.4,51.55,22.59,72.13,6.34-20.56,13.76-47.43,19.85-71.59,2.52-10.02,12.69-16.09,22.71-13.57,10.02,2.52,16.1,12.69,13.57,22.71-.07.29-7.28,28.86-15.45,56.99-4.87,16.75-9.15,30.16-12.72,39.86-4.62,12.53-10.89,29.55-26.67,29.55Z"/>
  </g>
</svg>