<?xml version="1.0" encoding="UTF-8"?>
<svg id="Layer_2" data-name="Layer 2" xmlns="http://www.w3.org/2000/svg" viewBox="0 0 206.31 206.31">
  <defs>
    <style>
      .cls-1, .cls-2, .cls-3, .cls-4, .cls-5 {
        stroke-miterlimit: 10;
      }

      .cls-1, .cls-2, .cls-4 {
        fill: none;
      }

      .cls-1, .cls-3 {
        stroke-width: 3px;
      }

      .cls-1, .cls-5 {
        stroke: #6651af;
      }

      .cls-6 {
        fill: #7c61c3;
      }

      .cls-2 {
        stroke: #dbd0f7;
        stroke-width: 10px;
      }

      .cls-2, .cls-4 {
        stroke-linecap: round;
      }

      .cls-7 {
        fill: #9178d5;
      }

      .cls-3 {
        stroke: #efebe8;
      }

      .cls-3, .cls-5 {
        fill: #fefcf9;
      }

      .cls-4 {
        stroke: #9f87dc;
        stroke-width: 14px;
      }

      .cls-5 {
        stroke-width: 2.21px;
      }
    </style>
  </defs>
  <g id="Layer_21" data-name="Layer 21">
    <g>
      <circle class="cls-3" cx="103.16" cy="103.16" r="101.66"/>
      <circle class="cls-6" cx="103.16" cy="103.16" r="93.18"/>
      <circle class="cls-7" cx="105.73" cy="98.39" r="85.18"/>
      <path class="cls-4" d="M31.54,98.39c0-40.97,33.22-74.19,74.19-74.19,9,0,17.63,1.6,25.61,4.54"/>
      <path class="cls-2" d="M43.28,58.33c4.95-7.7,11.28-14.42,18.65-19.82"/>
      <path class="cls-2" d="M35.8,73.57c.54-1.52,1.12-3.01,1.76-4.48"/>
      <circle class="cls-1" cx="103.16" cy="103.16" r="93.18"/>
      <path class="cls-5" d="M160.2,93.56l-1.98-29.73c-.35-5.27-6.63-7.8-10.54-4.25l-3.95,3.6c-10.88-11.43-26.34-18.44-43.44-18.08-31.15.66-56.54,26.25-56.97,57.41-.45,32.55,25.8,59.08,58.24,59.08,20.51,0,38.55-10.61,48.92-26.64,3.13-4.84,1.56-11.33-3.42-14.23l-3.15-1.84c-4.66-2.72-10.72-1.42-13.66,3.1-6.45,9.9-17.88,16.26-30.74,15.51-17.55-1.03-31.64-15.58-32.14-33.15-.55-19.35,14.97-35.21,34.2-35.21,9.55,0,18.18,3.93,24.38,10.25l-4.96,4.51c-3.8,3.46-2.09,9.77,2.94,10.84l28.07,5.95c4.42.94,8.52-2.61,8.22-7.12Z"/>
    </g>
  </g>
</svg>